<svg width="183" height="176" viewBox="0 0 183 176" fill="none" xmlns="http://www.w3.org/2000/svg">
<g clip-path="url(#clip0_108_6)">
<path d="M91.5 55C97.8168 55 102.938 50.0751 102.938 44C102.938 37.9249 97.8168 33 91.5 33C85.1832 33 80.0625 37.9249 80.0625 44C80.0625 50.0751 85.1832 55 91.5 55Z" fill="white"/>
<path d="M91.5 99C97.8168 99 102.938 94.0751 102.938 88C102.938 81.9249 97.8168 77 91.5 77C85.1832 77 80.0625 81.9249 80.0625 88C80.0625 94.0751 85.1832 99 91.5 99Z" fill="white"/>
<path d="M91.5 143C97.8168 143 102.938 138.075 102.938 132C102.938 125.925 97.8168 121 91.5 121C85.1832 121 80.0625 125.925 80.0625 132C80.0625 138.075 85.1832 143 91.5 143Z" fill="white"/>
</g>
<defs>
<clipPath id="clip0_108_6">
<rect width="183" height="176" fill="white"/>
</clipPath>
</defs>
</svg>
